<mxfile host="Electron" modified="2024-08-24T23:42:31.062Z" agent="Mozilla/5.0 (Windows NT 10.0; Win64; x64) AppleWebKit/537.36 (KHTML, like Gecko) draw.io/22.1.16 Chrome/120.0.6099.109 Electron/28.1.0 Safari/537.36" etag="xfBU0-TL6UXSt8z5nyZC" version="22.1.16" type="device">
  <diagram name="Page-1" id="mhcuc_TRiJDTC5OKFYOF">
    <mxGraphModel dx="915" dy="783" grid="1" gridSize="10" guides="1" tooltips="1" connect="1" arrows="1" fold="1" page="1" pageScale="1" pageWidth="800" pageHeight="190" math="0" shadow="0">
      <root>
        <mxCell id="0" />
        <mxCell id="1" parent="0" />
        <mxCell id="X5doryIkPCTgVUkxm4UN-1" value="" style="whiteSpace=wrap;html=1;aspect=fixed;strokeColor=#D4E1F5;" vertex="1" parent="1">
          <mxGeometry x="320" y="10" width="40" height="40" as="geometry" />
        </mxCell>
        <mxCell id="X5doryIkPCTgVUkxm4UN-5" value="" style="whiteSpace=wrap;html=1;aspect=fixed;strokeColor=#D4E1F5;" vertex="1" parent="1">
          <mxGeometry x="480" y="10" width="40" height="40" as="geometry" />
        </mxCell>
        <mxCell id="X5doryIkPCTgVUkxm4UN-7" value="" style="whiteSpace=wrap;html=1;aspect=fixed;strokeColor=#D4E1F5;" vertex="1" parent="1">
          <mxGeometry x="320" y="50" width="40" height="40" as="geometry" />
        </mxCell>
        <mxCell id="X5doryIkPCTgVUkxm4UN-11" value="" style="whiteSpace=wrap;html=1;aspect=fixed;strokeColor=#D4E1F5;" vertex="1" parent="1">
          <mxGeometry x="480" y="50" width="40" height="40" as="geometry" />
        </mxCell>
        <mxCell id="X5doryIkPCTgVUkxm4UN-13" value="" style="whiteSpace=wrap;html=1;aspect=fixed;strokeColor=#D4E1F5;" vertex="1" parent="1">
          <mxGeometry x="320" y="90" width="40" height="40" as="geometry" />
        </mxCell>
        <mxCell id="X5doryIkPCTgVUkxm4UN-17" value="" style="whiteSpace=wrap;html=1;aspect=fixed;strokeColor=#D4E1F5;" vertex="1" parent="1">
          <mxGeometry x="480" y="90" width="40" height="40" as="geometry" />
        </mxCell>
        <mxCell id="X5doryIkPCTgVUkxm4UN-19" value="" style="whiteSpace=wrap;html=1;aspect=fixed;strokeColor=#D4E1F5;" vertex="1" parent="1">
          <mxGeometry x="320" y="130" width="40" height="40" as="geometry" />
        </mxCell>
        <mxCell id="X5doryIkPCTgVUkxm4UN-20" value="" style="whiteSpace=wrap;html=1;aspect=fixed;strokeColor=#D4E1F5;" vertex="1" parent="1">
          <mxGeometry x="360" y="130" width="40" height="40" as="geometry" />
        </mxCell>
        <mxCell id="X5doryIkPCTgVUkxm4UN-21" value="" style="whiteSpace=wrap;html=1;aspect=fixed;strokeColor=#D4E1F5;" vertex="1" parent="1">
          <mxGeometry x="400" y="130" width="40" height="40" as="geometry" />
        </mxCell>
        <mxCell id="X5doryIkPCTgVUkxm4UN-22" value="" style="whiteSpace=wrap;html=1;aspect=fixed;strokeColor=#D4E1F5;" vertex="1" parent="1">
          <mxGeometry x="440" y="130" width="40" height="40" as="geometry" />
        </mxCell>
        <mxCell id="X5doryIkPCTgVUkxm4UN-23" value="" style="whiteSpace=wrap;html=1;aspect=fixed;strokeColor=#D4E1F5;" vertex="1" parent="1">
          <mxGeometry x="480" y="130" width="40" height="40" as="geometry" />
        </mxCell>
        <mxCell id="X5doryIkPCTgVUkxm4UN-2" value="0" style="whiteSpace=wrap;html=1;aspect=fixed;fillColor=#fff2cc;strokeColor=default;" vertex="1" parent="1">
          <mxGeometry x="360" y="10" width="40" height="40" as="geometry" />
        </mxCell>
        <mxCell id="X5doryIkPCTgVUkxm4UN-3" value="1" style="whiteSpace=wrap;html=1;aspect=fixed;fillColor=#fff2cc;strokeColor=default;" vertex="1" parent="1">
          <mxGeometry x="400" y="10" width="40" height="40" as="geometry" />
        </mxCell>
        <mxCell id="X5doryIkPCTgVUkxm4UN-4" value="2" style="whiteSpace=wrap;html=1;aspect=fixed;fillColor=#fff2cc;strokeColor=default;" vertex="1" parent="1">
          <mxGeometry x="440" y="10" width="40" height="40" as="geometry" />
        </mxCell>
        <mxCell id="X5doryIkPCTgVUkxm4UN-6" value="" style="whiteSpace=wrap;html=1;aspect=fixed;strokeColor=#D4E1F5;" vertex="1" parent="1">
          <mxGeometry x="520" y="10" width="40" height="40" as="geometry" />
        </mxCell>
        <mxCell id="X5doryIkPCTgVUkxm4UN-8" value="3" style="whiteSpace=wrap;html=1;aspect=fixed;fillColor=#fff2cc;strokeColor=default;" vertex="1" parent="1">
          <mxGeometry x="360" y="50" width="40" height="40" as="geometry" />
        </mxCell>
        <mxCell id="X5doryIkPCTgVUkxm4UN-9" value="C" style="whiteSpace=wrap;html=1;aspect=fixed;fillColor=#dae8fc;strokeColor=default;" vertex="1" parent="1">
          <mxGeometry x="400" y="50" width="40" height="40" as="geometry" />
        </mxCell>
        <mxCell id="X5doryIkPCTgVUkxm4UN-10" value="4" style="whiteSpace=wrap;html=1;aspect=fixed;fillColor=#fff2cc;strokeColor=default;" vertex="1" parent="1">
          <mxGeometry x="440" y="50" width="40" height="40" as="geometry" />
        </mxCell>
        <mxCell id="X5doryIkPCTgVUkxm4UN-12" value="" style="whiteSpace=wrap;html=1;aspect=fixed;strokeColor=#D4E1F5;" vertex="1" parent="1">
          <mxGeometry x="520" y="50" width="40" height="40" as="geometry" />
        </mxCell>
        <mxCell id="X5doryIkPCTgVUkxm4UN-14" value="5" style="whiteSpace=wrap;html=1;aspect=fixed;fillColor=#fff2cc;strokeColor=default;" vertex="1" parent="1">
          <mxGeometry x="360" y="90" width="40" height="40" as="geometry" />
        </mxCell>
        <mxCell id="X5doryIkPCTgVUkxm4UN-15" value="6" style="whiteSpace=wrap;html=1;aspect=fixed;fillColor=#fff2cc;strokeColor=default;" vertex="1" parent="1">
          <mxGeometry x="400" y="90" width="40" height="40" as="geometry" />
        </mxCell>
        <mxCell id="X5doryIkPCTgVUkxm4UN-16" value="7" style="whiteSpace=wrap;html=1;aspect=fixed;fillColor=#fff2cc;strokeColor=default;" vertex="1" parent="1">
          <mxGeometry x="440" y="90" width="40" height="40" as="geometry" />
        </mxCell>
        <mxCell id="X5doryIkPCTgVUkxm4UN-18" value="" style="whiteSpace=wrap;html=1;aspect=fixed;strokeColor=#D4E1F5;" vertex="1" parent="1">
          <mxGeometry x="520" y="90" width="40" height="40" as="geometry" />
        </mxCell>
        <mxCell id="X5doryIkPCTgVUkxm4UN-24" value="" style="whiteSpace=wrap;html=1;aspect=fixed;strokeColor=#D4E1F5;" vertex="1" parent="1">
          <mxGeometry x="520" y="130" width="40" height="40" as="geometry" />
        </mxCell>
        <mxCell id="X5doryIkPCTgVUkxm4UN-25" value="" style="whiteSpace=wrap;html=1;aspect=fixed;strokeColor=#D4E1F5;" vertex="1" parent="1">
          <mxGeometry x="280" y="10" width="40" height="40" as="geometry" />
        </mxCell>
        <mxCell id="X5doryIkPCTgVUkxm4UN-26" value="" style="whiteSpace=wrap;html=1;aspect=fixed;strokeColor=#D4E1F5;" vertex="1" parent="1">
          <mxGeometry x="280" y="50" width="40" height="40" as="geometry" />
        </mxCell>
        <mxCell id="X5doryIkPCTgVUkxm4UN-27" value="" style="whiteSpace=wrap;html=1;aspect=fixed;strokeColor=#D4E1F5;" vertex="1" parent="1">
          <mxGeometry x="280" y="90" width="40" height="40" as="geometry" />
        </mxCell>
        <mxCell id="X5doryIkPCTgVUkxm4UN-28" value="" style="whiteSpace=wrap;html=1;aspect=fixed;strokeColor=#D4E1F5;" vertex="1" parent="1">
          <mxGeometry x="280" y="130" width="40" height="40" as="geometry" />
        </mxCell>
      </root>
    </mxGraphModel>
  </diagram>
</mxfile>
